<svg xmlns="http://www.w3.org/2000/svg" xmlns:xlink="http://www.w3.org/1999/xlink" width="500" zoomAndPan="magnify" viewBox="0 0 375 374.999991" height="500" preserveAspectRatio="xMidYMid meet" version="1.0"><defs><clipPath id="fc47b59d5a"><path d="M 10.277344 57.683594 L 364.722656 57.683594 L 364.722656 103 L 10.277344 103 Z M 10.277344 57.683594 " clip-rule="nonzero"/></clipPath><clipPath id="7419a04fce"><path d="M 10.277344 165 L 364.722656 165 L 364.722656 211 L 10.277344 211 Z M 10.277344 165 " clip-rule="nonzero"/></clipPath><clipPath id="89e2afc4ed"><path d="M 10.277344 273 L 364.722656 273 L 364.722656 318.203125 L 10.277344 318.203125 Z M 10.277344 273 " clip-rule="nonzero"/></clipPath><clipPath id="c2fabce309"><path d="M 10.277344 57.683594 L 364.722656 57.683594 L 364.722656 103 L 10.277344 103 Z M 10.277344 57.683594 " clip-rule="nonzero"/></clipPath><clipPath id="a84e5bc238"><path d="M 10.277344 165 L 364.722656 165 L 364.722656 211 L 10.277344 211 Z M 10.277344 165 " clip-rule="nonzero"/></clipPath><clipPath id="c20a7004fd"><path d="M 10.277344 273 L 364.722656 273 L 364.722656 318.203125 L 10.277344 318.203125 Z M 10.277344 273 " clip-rule="nonzero"/></clipPath></defs><g clip-path="url(#fc47b59d5a)"><path fill="#ffffff" d="M 32.941406 102.875 L 342.058594 102.875 C 354.511719 102.875 364.617188 92.734375 364.617188 80.238281 C 364.617188 67.742188 354.429688 57.683594 342.058594 57.683594 L 32.941406 57.683594 C 20.488281 57.683594 10.382812 67.824219 10.382812 80.320312 C 10.382812 92.8125 20.488281 102.875 32.941406 102.875 Z M 32.941406 102.875 " fill-opacity="1" fill-rule="nonzero"/></g><g clip-path="url(#7419a04fce)"><path fill="#ffffff" d="M 342.058594 165.347656 L 32.941406 165.347656 C 20.488281 165.347656 10.382812 175.488281 10.382812 187.902344 C 10.382812 200.316406 20.488281 210.539062 32.941406 210.539062 L 342.058594 210.539062 C 354.511719 210.539062 364.617188 200.398438 364.617188 187.902344 C 364.617188 175.40625 354.429688 165.347656 342.058594 165.347656 Z M 342.058594 165.347656 " fill-opacity="1" fill-rule="nonzero"/></g><g clip-path="url(#89e2afc4ed)"><path fill="#ffffff" d="M 342.058594 273.011719 L 32.941406 273.011719 C 20.488281 273.011719 10.382812 283.070312 10.382812 295.566406 C 10.382812 308.0625 20.488281 318.203125 32.941406 318.203125 L 342.058594 318.203125 C 354.511719 318.203125 364.617188 308.0625 364.617188 295.566406 C 364.617188 283.070312 354.429688 273.011719 342.058594 273.011719 Z M 342.058594 273.011719 " fill-opacity="1" fill-rule="nonzero"/></g><g clip-path="url(#c2fabce309)"><path fill="#ffffff" d="M 32.941406 102.875 L 342.058594 102.875 C 354.511719 102.875 364.617188 92.734375 364.617188 80.238281 C 364.617188 67.742188 354.429688 57.683594 342.058594 57.683594 L 32.941406 57.683594 C 20.488281 57.683594 10.382812 67.824219 10.382812 80.320312 C 10.382812 92.8125 20.488281 102.875 32.941406 102.875 Z M 32.941406 102.875 " fill-opacity="1" fill-rule="nonzero"/></g><g clip-path="url(#a84e5bc238)"><path fill="#ffffff" d="M 342.058594 165.347656 L 32.941406 165.347656 C 20.488281 165.347656 10.382812 175.488281 10.382812 187.902344 C 10.382812 200.316406 20.488281 210.539062 32.941406 210.539062 L 342.058594 210.539062 C 354.511719 210.539062 364.617188 200.398438 364.617188 187.902344 C 364.617188 175.40625 354.429688 165.347656 342.058594 165.347656 Z M 342.058594 165.347656 " fill-opacity="1" fill-rule="nonzero"/></g><g clip-path="url(#c20a7004fd)"><path fill="#ffffff" d="M 342.058594 273.011719 L 32.941406 273.011719 C 20.488281 273.011719 10.382812 283.070312 10.382812 295.566406 C 10.382812 308.0625 20.488281 318.203125 32.941406 318.203125 L 342.058594 318.203125 C 354.511719 318.203125 364.617188 308.0625 364.617188 295.566406 C 364.617188 283.070312 354.429688 273.011719 342.058594 273.011719 Z M 342.058594 273.011719 " fill-opacity="1" fill-rule="nonzero"/></g></svg>