<svg xmlns="http://www.w3.org/2000/svg" xmlns:xlink="http://www.w3.org/1999/xlink" width="500" zoomAndPan="magnify" viewBox="0 0 375 374.999991" height="500" preserveAspectRatio="xMidYMid meet" version="1.0"><path fill="#ffffff" d="M 308.242188 314.539062 C 307.054688 325.328125 295.835938 332.46875 278.769531 343.308594 C 249.15625 362.136719 219.578125 364.132812 206.957031 364.886719 C 167.863281 367.207031 139.09375 355.179688 124.097656 348.703125 C 98.496094 337.644531 85.691406 332.125 83.589844 321.734375 C 78.480469 296.488281 136.46875 250.511719 196.832031 249.808594 C 253.617188 249.144531 311.117188 288.289062 308.242188 314.539062 Z M 308.242188 314.539062 " fill-opacity="1" fill-rule="nonzero"/><path fill="#ffffff" d="M 356 194.96875 C 355.515625 262.199219 313.132812 324.324219 249.390625 347.160156 C 185.648438 369.996094 112.179688 349.980469 68.71875 297.261719 C 25.90625 245.351562 20.78125 169.507812 55.230469 111.929688 C 89.988281 53.835938 159.703125 22.621094 226.195312 36.285156 C 301.230469 51.695312 355.441406 118.601562 355.980469 194.96875 C 356.070312 206.527344 374.050781 206.566406 373.960938 194.96875 C 373.421875 120.148438 326.582031 52.523438 256.402344 26.253906 C 186.132812 -0.0351562 103.707031 22.117188 55.988281 79.941406 C 8.03125 138.074219 0.859375 222.136719 39.695312 287.066406 C 78.355469 351.691406 154.738281 385.457031 228.585938 371.449219 C 312.46875 355.539062 373.351562 279.675781 373.960938 194.96875 C 374.050781 183.386719 356.070312 183.386719 355.980469 194.96875 Z M 356 194.96875 " fill-opacity="1" fill-rule="nonzero"/><path fill="#ffffff" d="M 267.28125 151.902344 C 267.28125 153.125 267.25 154.347656 267.191406 155.566406 C 267.132812 156.789062 267.042969 158.007812 266.921875 159.222656 C 266.800781 160.4375 266.652344 161.652344 266.472656 162.859375 C 266.292969 164.070312 266.085938 165.273438 265.847656 166.472656 C 265.609375 167.671875 265.339844 168.863281 265.042969 170.046875 C 264.746094 171.234375 264.421875 172.410156 264.066406 173.582031 C 263.710938 174.75 263.328125 175.910156 262.917969 177.058594 C 262.503906 178.210938 262.066406 179.351562 261.597656 180.480469 C 261.128906 181.609375 260.632812 182.726562 260.113281 183.832031 C 259.589844 184.933594 259.039062 186.027344 258.464844 187.105469 C 257.886719 188.183594 257.285156 189.246094 256.65625 190.292969 C 256.027344 191.34375 255.375 192.375 254.695312 193.390625 C 254.015625 194.40625 253.3125 195.40625 252.585938 196.386719 C 251.859375 197.367188 251.105469 198.332031 250.332031 199.277344 C 249.554688 200.222656 248.757812 201.144531 247.9375 202.050781 C 247.117188 202.957031 246.273438 203.84375 245.410156 204.707031 C 244.546875 205.570312 243.660156 206.414062 242.753906 207.234375 C 241.851562 208.054688 240.925781 208.851562 239.980469 209.628906 C 239.035156 210.402344 238.070312 211.15625 237.089844 211.882812 C 236.109375 212.609375 235.109375 213.3125 234.09375 213.992188 C 233.078125 214.671875 232.046875 215.324219 230.996094 215.953125 C 229.949219 216.582031 228.886719 217.183594 227.808594 217.761719 C 226.730469 218.335938 225.640625 218.886719 224.535156 219.410156 C 223.429688 219.929688 222.3125 220.425781 221.183594 220.894531 C 220.054688 221.363281 218.914062 221.800781 217.765625 222.210938 C 216.613281 222.625 215.453125 223.007812 214.285156 223.363281 C 213.113281 223.71875 211.9375 224.042969 210.75 224.339844 C 209.566406 224.636719 208.375 224.90625 207.175781 225.144531 C 205.976562 225.382812 204.773438 225.589844 203.5625 225.769531 C 202.355469 225.949219 201.140625 226.097656 199.925781 226.21875 C 198.710938 226.339844 197.492188 226.429688 196.269531 226.488281 C 195.050781 226.546875 193.828125 226.578125 192.605469 226.578125 C 191.382812 226.578125 190.164062 226.546875 188.941406 226.488281 C 187.722656 226.429688 186.503906 226.339844 185.289062 226.21875 C 184.070312 226.097656 182.859375 225.949219 181.648438 225.769531 C 180.441406 225.589844 179.238281 225.382812 178.039062 225.144531 C 176.839844 224.90625 175.648438 224.636719 174.460938 224.339844 C 173.277344 224.042969 172.097656 223.71875 170.929688 223.363281 C 169.761719 223.007812 168.601562 222.625 167.449219 222.210938 C 166.296875 221.800781 165.160156 221.363281 164.03125 220.894531 C 162.902344 220.425781 161.785156 219.929688 160.679688 219.410156 C 159.574219 218.886719 158.484375 218.335938 157.40625 217.761719 C 156.328125 217.183594 155.265625 216.582031 154.214844 215.953125 C 153.167969 215.324219 152.136719 214.671875 151.121094 213.992188 C 150.101562 213.3125 149.105469 212.609375 148.121094 211.882812 C 147.140625 211.15625 146.179688 210.402344 145.234375 209.628906 C 144.289062 208.851562 143.363281 208.054688 142.457031 207.234375 C 141.550781 206.414062 140.667969 205.570312 139.804688 204.707031 C 138.9375 203.84375 138.097656 202.957031 137.277344 202.050781 C 136.457031 201.144531 135.65625 200.222656 134.882812 199.277344 C 134.105469 198.332031 133.355469 197.367188 132.628906 196.386719 C 131.898438 195.40625 131.195312 194.40625 130.515625 193.390625 C 129.835938 192.375 129.183594 191.34375 128.554688 190.292969 C 127.925781 189.246094 127.324219 188.183594 126.75 187.105469 C 126.171875 186.027344 125.625 184.933594 125.101562 183.832031 C 124.578125 182.726562 124.082031 181.609375 123.617188 180.480469 C 123.148438 179.351562 122.707031 178.210938 122.296875 177.058594 C 121.886719 175.910156 121.5 174.75 121.148438 173.582031 C 120.792969 172.410156 120.464844 171.234375 120.167969 170.046875 C 119.871094 168.863281 119.605469 167.671875 119.367188 166.472656 C 119.128906 165.273438 118.917969 164.070312 118.738281 162.859375 C 118.5625 161.652344 118.410156 160.4375 118.292969 159.222656 C 118.171875 158.007812 118.082031 156.789062 118.023438 155.566406 C 117.960938 154.347656 117.933594 153.125 117.933594 151.902344 C 117.933594 150.679688 117.960938 149.460938 118.023438 148.238281 C 118.082031 147.019531 118.171875 145.800781 118.292969 144.582031 C 118.410156 143.367188 118.5625 142.15625 118.738281 140.945312 C 118.917969 139.738281 119.128906 138.535156 119.367188 137.335938 C 119.605469 136.136719 119.871094 134.945312 120.167969 133.757812 C 120.464844 132.574219 120.792969 131.394531 121.148438 130.226562 C 121.5 129.054688 121.886719 127.898438 122.296875 126.746094 C 122.707031 125.59375 123.148438 124.457031 123.617188 123.328125 C 124.082031 122.195312 124.578125 121.082031 125.101562 119.976562 C 125.625 118.871094 126.171875 117.78125 126.75 116.703125 C 127.324219 115.625 127.925781 114.5625 128.554688 113.511719 C 129.183594 112.464844 129.835938 111.433594 130.515625 110.414062 C 131.195312 109.398438 131.898438 108.402344 132.628906 107.417969 C 133.355469 106.4375 134.105469 105.472656 134.882812 104.53125 C 135.65625 103.585938 136.457031 102.660156 137.277344 101.753906 C 138.097656 100.847656 138.9375 99.964844 139.804688 99.101562 C 140.667969 98.234375 141.550781 97.394531 142.457031 96.574219 C 143.363281 95.75 144.289062 94.953125 145.234375 94.179688 C 146.179688 93.402344 147.140625 92.652344 148.121094 91.921875 C 149.105469 91.195312 150.101562 90.492188 151.121094 89.8125 C 152.136719 89.132812 153.167969 88.480469 154.214844 87.851562 C 155.265625 87.222656 156.328125 86.621094 157.40625 86.046875 C 158.484375 85.46875 159.574219 84.921875 160.679688 84.398438 C 161.785156 83.875 162.902344 83.378906 164.03125 82.914062 C 165.160156 82.445312 166.296875 82.003906 167.449219 81.59375 C 168.601562 81.183594 169.761719 80.796875 170.929688 80.445312 C 172.097656 80.089844 173.277344 79.761719 174.460938 79.464844 C 175.648438 79.167969 176.839844 78.902344 178.039062 78.664062 C 179.238281 78.425781 180.441406 78.214844 181.648438 78.035156 C 182.859375 77.855469 184.070312 77.707031 185.289062 77.585938 C 186.503906 77.46875 187.722656 77.378906 188.941406 77.316406 C 190.164062 77.257812 191.382812 77.226562 192.605469 77.226562 C 193.828125 77.226562 195.050781 77.257812 196.269531 77.316406 C 197.492188 77.378906 198.710938 77.46875 199.925781 77.585938 C 201.140625 77.707031 202.355469 77.855469 203.5625 78.035156 C 204.773438 78.214844 205.976562 78.425781 207.175781 78.664062 C 208.375 78.902344 209.566406 79.167969 210.75 79.464844 C 211.9375 79.761719 213.113281 80.089844 214.285156 80.445312 C 215.453125 80.796875 216.613281 81.183594 217.765625 81.59375 C 218.914062 82.003906 220.054688 82.445312 221.183594 82.914062 C 222.3125 83.378906 223.429688 83.875 224.535156 84.398438 C 225.640625 84.921875 226.730469 85.46875 227.808594 86.046875 C 228.886719 86.621094 229.949219 87.222656 230.996094 87.851562 C 232.046875 88.480469 233.078125 89.132812 234.09375 89.8125 C 235.109375 90.492188 236.109375 91.195312 237.089844 91.921875 C 238.070312 92.652344 239.035156 93.402344 239.980469 94.179688 C 240.925781 94.953125 241.851562 95.75 242.753906 96.574219 C 243.660156 97.394531 244.546875 98.234375 245.410156 99.101562 C 246.273438 99.964844 247.117188 100.847656 247.9375 101.753906 C 248.757812 102.660156 249.554688 103.585938 250.332031 104.53125 C 251.105469 105.472656 251.859375 106.4375 252.585938 107.417969 C 253.3125 108.402344 254.015625 109.398438 254.695312 110.414062 C 255.375 111.433594 256.027344 112.464844 256.65625 113.511719 C 257.285156 114.5625 257.886719 115.625 258.464844 116.703125 C 259.039062 117.78125 259.589844 118.871094 260.113281 119.976562 C 260.632812 121.082031 261.128906 122.195312 261.597656 123.328125 C 262.066406 124.457031 262.503906 125.59375 262.917969 126.746094 C 263.328125 127.898438 263.710938 129.054688 264.066406 130.226562 C 264.421875 131.394531 264.746094 132.574219 265.042969 133.757812 C 265.339844 134.945312 265.609375 136.136719 265.847656 137.335938 C 266.085938 138.535156 266.292969 139.738281 266.472656 140.945312 C 266.652344 142.15625 266.800781 143.367188 266.921875 144.582031 C 267.042969 145.800781 267.132812 147.019531 267.191406 148.238281 C 267.25 149.460938 267.28125 150.679688 267.28125 151.902344 Z M 267.28125 151.902344 " fill-opacity="1" fill-rule="nonzero"/><path fill="#ffffff" d="M 308.242188 314.539062 C 307.054688 325.328125 295.835938 332.46875 278.769531 343.308594 C 249.15625 362.136719 219.578125 364.132812 206.957031 364.886719 C 167.863281 367.207031 139.09375 355.179688 124.097656 348.703125 C 98.496094 337.644531 85.691406 332.125 83.589844 321.734375 C 78.480469 296.488281 136.46875 250.511719 196.832031 249.808594 C 253.617188 249.144531 311.117188 288.289062 308.242188 314.539062 Z M 308.242188 314.539062 " fill-opacity="1" fill-rule="nonzero"/><path fill="#ffffff" d="M 356 194.96875 C 355.515625 262.199219 313.132812 324.324219 249.390625 347.160156 C 185.648438 369.996094 112.179688 349.980469 68.71875 297.261719 C 25.90625 245.351562 20.78125 169.507812 55.230469 111.929688 C 89.988281 53.835938 159.703125 22.621094 226.195312 36.285156 C 301.230469 51.695312 355.441406 118.601562 355.980469 194.96875 C 356.070312 206.527344 374.050781 206.566406 373.960938 194.96875 C 373.421875 120.148438 326.582031 52.523438 256.402344 26.253906 C 186.132812 -0.0351562 103.707031 22.117188 55.988281 79.941406 C 8.03125 138.074219 0.859375 222.136719 39.695312 287.066406 C 78.355469 351.691406 154.738281 385.457031 228.585938 371.449219 C 312.46875 355.539062 373.351562 279.675781 373.960938 194.96875 C 374.050781 183.386719 356.070312 183.386719 355.980469 194.96875 Z M 356 194.96875 " fill-opacity="1" fill-rule="nonzero"/><path fill="#ffffff" d="M 267.28125 151.902344 C 267.28125 153.125 267.25 154.347656 267.191406 155.566406 C 267.132812 156.789062 267.042969 158.007812 266.921875 159.222656 C 266.800781 160.4375 266.652344 161.652344 266.472656 162.859375 C 266.292969 164.070312 266.085938 165.273438 265.847656 166.472656 C 265.609375 167.671875 265.339844 168.863281 265.042969 170.046875 C 264.746094 171.234375 264.421875 172.410156 264.066406 173.582031 C 263.710938 174.75 263.328125 175.910156 262.917969 177.058594 C 262.503906 178.210938 262.066406 179.351562 261.597656 180.480469 C 261.128906 181.609375 260.632812 182.726562 260.113281 183.832031 C 259.589844 184.933594 259.039062 186.027344 258.464844 187.105469 C 257.886719 188.183594 257.285156 189.246094 256.65625 190.292969 C 256.027344 191.34375 255.375 192.375 254.695312 193.390625 C 254.015625 194.40625 253.3125 195.40625 252.585938 196.386719 C 251.859375 197.367188 251.105469 198.332031 250.332031 199.277344 C 249.554688 200.222656 248.757812 201.144531 247.9375 202.050781 C 247.117188 202.957031 246.273438 203.84375 245.410156 204.707031 C 244.546875 205.570312 243.660156 206.414062 242.753906 207.234375 C 241.851562 208.054688 240.925781 208.851562 239.980469 209.628906 C 239.035156 210.402344 238.070312 211.15625 237.089844 211.882812 C 236.109375 212.609375 235.109375 213.3125 234.09375 213.992188 C 233.078125 214.671875 232.046875 215.324219 230.996094 215.953125 C 229.949219 216.582031 228.886719 217.183594 227.808594 217.761719 C 226.730469 218.335938 225.640625 218.886719 224.535156 219.410156 C 223.429688 219.929688 222.3125 220.425781 221.183594 220.894531 C 220.054688 221.363281 218.914062 221.800781 217.765625 222.210938 C 216.613281 222.625 215.453125 223.007812 214.285156 223.363281 C 213.113281 223.71875 211.9375 224.042969 210.75 224.339844 C 209.566406 224.636719 208.375 224.90625 207.175781 225.144531 C 205.976562 225.382812 204.773438 225.589844 203.5625 225.769531 C 202.355469 225.949219 201.140625 226.097656 199.925781 226.21875 C 198.710938 226.339844 197.492188 226.429688 196.269531 226.488281 C 195.050781 226.546875 193.828125 226.578125 192.605469 226.578125 C 191.382812 226.578125 190.164062 226.546875 188.941406 226.488281 C 187.722656 226.429688 186.503906 226.339844 185.289062 226.21875 C 184.070312 226.097656 182.859375 225.949219 181.648438 225.769531 C 180.441406 225.589844 179.238281 225.382812 178.039062 225.144531 C 176.839844 224.90625 175.648438 224.636719 174.460938 224.339844 C 173.277344 224.042969 172.097656 223.71875 170.929688 223.363281 C 169.761719 223.007812 168.601562 222.625 167.449219 222.210938 C 166.296875 221.800781 165.160156 221.363281 164.03125 220.894531 C 162.902344 220.425781 161.785156 219.929688 160.679688 219.410156 C 159.574219 218.886719 158.484375 218.335938 157.40625 217.761719 C 156.328125 217.183594 155.265625 216.582031 154.214844 215.953125 C 153.167969 215.324219 152.136719 214.671875 151.121094 213.992188 C 150.101562 213.3125 149.105469 212.609375 148.121094 211.882812 C 147.140625 211.15625 146.179688 210.402344 145.234375 209.628906 C 144.289062 208.851562 143.363281 208.054688 142.457031 207.234375 C 141.550781 206.414062 140.667969 205.570312 139.804688 204.707031 C 138.9375 203.84375 138.097656 202.957031 137.277344 202.050781 C 136.457031 201.144531 135.65625 200.222656 134.882812 199.277344 C 134.105469 198.332031 133.355469 197.367188 132.628906 196.386719 C 131.898438 195.40625 131.195312 194.40625 130.515625 193.390625 C 129.835938 192.375 129.183594 191.34375 128.554688 190.292969 C 127.925781 189.246094 127.324219 188.183594 126.75 187.105469 C 126.171875 186.027344 125.625 184.933594 125.101562 183.832031 C 124.578125 182.726562 124.082031 181.609375 123.617188 180.480469 C 123.148438 179.351562 122.707031 178.210938 122.296875 177.058594 C 121.886719 175.910156 121.5 174.75 121.148438 173.582031 C 120.792969 172.410156 120.464844 171.234375 120.167969 170.046875 C 119.871094 168.863281 119.605469 167.671875 119.367188 166.472656 C 119.128906 165.273438 118.917969 164.070312 118.738281 162.859375 C 118.5625 161.652344 118.410156 160.4375 118.292969 159.222656 C 118.171875 158.007812 118.082031 156.789062 118.023438 155.566406 C 117.960938 154.347656 117.933594 153.125 117.933594 151.902344 C 117.933594 150.679688 117.960938 149.460938 118.023438 148.238281 C 118.082031 147.019531 118.171875 145.800781 118.292969 144.582031 C 118.410156 143.367188 118.5625 142.15625 118.738281 140.945312 C 118.917969 139.738281 119.128906 138.535156 119.367188 137.335938 C 119.605469 136.136719 119.871094 134.945312 120.167969 133.757812 C 120.464844 132.574219 120.792969 131.394531 121.148438 130.226562 C 121.5 129.054688 121.886719 127.898438 122.296875 126.746094 C 122.707031 125.59375 123.148438 124.457031 123.617188 123.328125 C 124.082031 122.195312 124.578125 121.082031 125.101562 119.976562 C 125.625 118.871094 126.171875 117.78125 126.75 116.703125 C 127.324219 115.625 127.925781 114.5625 128.554688 113.511719 C 129.183594 112.464844 129.835938 111.433594 130.515625 110.414062 C 131.195312 109.398438 131.898438 108.402344 132.628906 107.417969 C 133.355469 106.4375 134.105469 105.472656 134.882812 104.53125 C 135.65625 103.585938 136.457031 102.660156 137.277344 101.753906 C 138.097656 100.847656 138.9375 99.964844 139.804688 99.101562 C 140.667969 98.234375 141.550781 97.394531 142.457031 96.574219 C 143.363281 95.75 144.289062 94.953125 145.234375 94.179688 C 146.179688 93.402344 147.140625 92.652344 148.121094 91.921875 C 149.105469 91.195312 150.101562 90.492188 151.121094 89.8125 C 152.136719 89.132812 153.167969 88.480469 154.214844 87.851562 C 155.265625 87.222656 156.328125 86.621094 157.40625 86.046875 C 158.484375 85.46875 159.574219 84.921875 160.679688 84.398438 C 161.785156 83.875 162.902344 83.378906 164.03125 82.914062 C 165.160156 82.445312 166.296875 82.003906 167.449219 81.59375 C 168.601562 81.183594 169.761719 80.796875 170.929688 80.445312 C 172.097656 80.089844 173.277344 79.761719 174.460938 79.464844 C 175.648438 79.167969 176.839844 78.902344 178.039062 78.664062 C 179.238281 78.425781 180.441406 78.214844 181.648438 78.035156 C 182.859375 77.855469 184.070312 77.707031 185.289062 77.585938 C 186.503906 77.46875 187.722656 77.378906 188.941406 77.316406 C 190.164062 77.257812 191.382812 77.226562 192.605469 77.226562 C 193.828125 77.226562 195.050781 77.257812 196.269531 77.316406 C 197.492188 77.378906 198.710938 77.46875 199.925781 77.585938 C 201.140625 77.707031 202.355469 77.855469 203.5625 78.035156 C 204.773438 78.214844 205.976562 78.425781 207.175781 78.664062 C 208.375 78.902344 209.566406 79.167969 210.75 79.464844 C 211.9375 79.761719 213.113281 80.089844 214.285156 80.445312 C 215.453125 80.796875 216.613281 81.183594 217.765625 81.59375 C 218.914062 82.003906 220.054688 82.445312 221.183594 82.914062 C 222.3125 83.378906 223.429688 83.875 224.535156 84.398438 C 225.640625 84.921875 226.730469 85.46875 227.808594 86.046875 C 228.886719 86.621094 229.949219 87.222656 230.996094 87.851562 C 232.046875 88.480469 233.078125 89.132812 234.09375 89.8125 C 235.109375 90.492188 236.109375 91.195312 237.089844 91.921875 C 238.070312 92.652344 239.035156 93.402344 239.980469 94.179688 C 240.925781 94.953125 241.851562 95.75 242.753906 96.574219 C 243.660156 97.394531 244.546875 98.234375 245.410156 99.101562 C 246.273438 99.964844 247.117188 100.847656 247.9375 101.753906 C 248.757812 102.660156 249.554688 103.585938 250.332031 104.53125 C 251.105469 105.472656 251.859375 106.4375 252.585938 107.417969 C 253.3125 108.402344 254.015625 109.398438 254.695312 110.414062 C 255.375 111.433594 256.027344 112.464844 256.65625 113.511719 C 257.285156 114.5625 257.886719 115.625 258.464844 116.703125 C 259.039062 117.78125 259.589844 118.871094 260.113281 119.976562 C 260.632812 121.082031 261.128906 122.195312 261.597656 123.328125 C 262.066406 124.457031 262.503906 125.59375 262.917969 126.746094 C 263.328125 127.898438 263.710938 129.054688 264.066406 130.226562 C 264.421875 131.394531 264.746094 132.574219 265.042969 133.757812 C 265.339844 134.945312 265.609375 136.136719 265.847656 137.335938 C 266.085938 138.535156 266.292969 139.738281 266.472656 140.945312 C 266.652344 142.15625 266.800781 143.367188 266.921875 144.582031 C 267.042969 145.800781 267.132812 147.019531 267.191406 148.238281 C 267.25 149.460938 267.28125 150.679688 267.28125 151.902344 Z M 267.28125 151.902344 " fill-opacity="1" fill-rule="nonzero"/></svg>